<?xml version="1.0" encoding="UTF-8"?>
<!-- SPDX-FileCopyrightText: 2026 Mikkel Bergmann -->
<!-- SPDX-License-Identifier: MIT -->
<svg xmlns="http://www.w3.org/2000/svg" viewBox="0 0 32 32" role="img" aria-label="Podscript">
  <rect width="32" height="32" rx="7" fill="#8844ae"/>
  <path fill="#ffffff" transform="translate(-34.33 -11.59) scale(0.0984)"
    d="M590.992432,254.680435 C587.760315,254.780472 584.928101,254.799561 582.098816,254.900238 C571.807251,255.266449 562.540100,253.193939 555.835632,242.631912 C553.817139,252.563599 552.162598,261.147491 550.294434,269.684631 C549.514709,273.248108 548.494995,276.793396 547.203186,280.202515 C545.256226,285.340302 542.010559,289.213104 535.925049,289.246002 C529.821838,289.278961 526.695435,285.383667 524.584534,280.289154 C521.883545,273.770233 520.871704,266.837585 519.674805,259.957031 C517.709595,248.659225 515.804810,237.350906 512.900635,225.945206 C511.702759,232.646942 510.426453,239.335876 509.329102,246.054047 C508.228455,252.792130 507.104340,259.530731 505.111023,266.062073 C502.806213,273.614105 498.717377,277.210327 492.839844,277.331177 C486.613525,277.459198 482.135498,274.041138 479.607147,266.535522 C477.430786,260.074921 475.748474,253.448166 473.835236,246.898514 C473.289001,245.028656 473.153412,242.988419 471.554443,241.206238 C469.271484,243.780655 468.112762,247.043518 465.441681,249.132370 C461.241974,252.416626 456.639984,254.417007 451.214233,254.403610 C440.051147,254.376053 428.887756,254.409012 417.724701,254.462631 C415.397308,254.473801 413.417877,254.466476 413.389954,251.225082 C413.200592,229.245773 412.159607,207.242844 413.744019,185.299515 C414.800079,170.673721 428.141846,158.756989 442.743286,158.699982 C472.733795,158.582886 502.728302,158.409378 532.715332,158.759415 C568.342102,159.175247 600.864990,186.272766 609.926453,222.473175 C619.697266,261.507629 602.758911,301.074860 568.037048,319.980011 C555.354553,326.885345 541.617920,330.028595 527.229980,330.079926 C499.571991,330.178589 471.913391,330.099121 444.255035,330.113159 C433.845459,330.118439 430.188110,333.747406 430.133179,344.247284 C430.069550,356.409912 430.195251,368.574036 430.058014,380.735443 C430.017975,384.283600 431.052643,386.056915 434.886108,385.750427 C437.700623,385.525452 440.547943,385.736450 443.379913,385.699219 C451.370453,385.594177 456.451477,380.693329 456.592377,372.618195 C456.740570,364.123535 456.761200,355.619904 456.531647,347.128448 C456.425385,343.197571 457.438538,341.532715 461.762207,341.479584 C473.196198,341.339142 473.350433,341.139832 473.178101,352.664276 C473.041473,361.801208 474.242004,370.996857 472.372986,380.071350 C469.659515,393.246124 458.792603,402.192139 445.338226,402.319611 C436.175110,402.406403 427.009766,402.277344 417.847107,402.386017 C414.870758,402.421265 413.012268,401.682281 413.059906,398.295807 C413.345520,377.980469 412.179840,357.636658 413.743073,337.352844 C414.759674,324.161591 426.338745,313.990875 439.645386,313.581451 C468.962128,312.679474 498.295227,312.731232 527.601624,313.247070 C558.345825,313.788208 586.407349,291.924622 594.057129,261.443817 C594.600952,259.277252 598.355225,254.446442 590.992432,254.680435 M527.380432,210.326538 C530.127625,225.352615 532.874878,240.378708 535.622070,255.404800 C537.291016,252.062820 537.938904,248.807434 538.741333,245.590591 C540.350037,239.140900 541.242188,232.454941 544.239014,226.435135 C549.041809,216.787582 559.859009,216.084946 565.784119,224.995422 C567.064148,226.920364 568.226074,229.032913 568.907227,231.225327 C570.565063,236.561264 574.044617,238.606201 579.480469,238.166077 C582.287842,237.938782 585.146179,238.134003 587.968018,238.331085 C596.330444,238.915115 596.530762,238.715714 594.839050,230.336929 C594.740173,229.847534 594.714905,229.343079 594.612427,228.854660 C588.385437,199.188278 561.508789,175.714722 532.686523,175.406479 C503.190887,175.091019 473.689331,175.285645 444.190552,175.344406 C436.021057,175.360672 430.296326,180.857803 430.183868,189.093689 C429.976807,204.256836 430.158173,219.424957 430.043457,234.589981 C430.019775,237.722824 431.360931,238.656036 434.247009,238.588928 C439.077271,238.476624 443.912598,238.544525 448.745331,238.588867 C452.906647,238.627045 455.699951,236.868927 457.049133,232.806335 C457.991425,229.968811 458.981018,227.111725 460.317383,224.447952 C462.833160,219.433228 466.876495,216.530136 472.692596,216.723236 C478.347687,216.911011 482.001099,220.098984 484.086823,225.063568 C485.499542,228.426178 486.479431,231.976120 487.562744,235.470230 C488.884460,239.733185 490.111633,244.025452 491.379730,248.305023 C493.793579,240.431900 495.096649,232.736038 496.667572,225.095276 C498.406006,216.639694 499.216095,207.957520 502.502350,199.863815 C504.549103,194.822922 507.917175,191.515518 513.772888,191.638474 C519.398621,191.756622 522.640198,195.014114 524.428528,199.944946 C525.559326,203.062897 526.350037,206.304245 527.380432,210.326538 z"/>
</svg>
